<?xml version="1.0" encoding="iso-8859-1"?>
<!-- Generator: Adobe Illustrator 19.0.0, SVG Export Plug-In . SVG Version: 6.00 Build 0)  -->
<svg version="1.1" id="Layer_1" xmlns="http://www.w3.org/2000/svg" xmlns:xlink="http://www.w3.org/1999/xlink" x="0px" y="0px"
	 viewBox="0 0 512 512" style="enable-background:new 0 0 512 512;" xml:space="preserve">
<path style="fill:#EEBF00;" d="M137.178,283.545H256c15.148,0,27.428-12.281,27.428-27.428V137.294
	c0-15.148-12.281-27.428-27.428-27.428s-27.428,12.281-27.428,27.428v91.393h-91.394c-15.148,0-27.428,12.281-27.428,27.428
	C109.75,271.266,122.03,283.545,137.178,283.545z"/>
<path style="fill:#424EDE;" d="M256,512c141.158,0,255.999-114.841,255.999-255.999C511.997,114.841,397.158,0,256,0
	S0.001,114.841,0.001,256.001C0.001,397.159,114.84,512,256,512z M256,54.857c110.91,0,201.142,90.232,201.142,201.144
	c0,110.91-90.232,201.142-201.142,201.142S54.858,366.911,54.858,256.001C54.856,145.089,145.088,54.857,256,54.857z"/>
<g>
</g>
<g>
</g>
<g>
</g>
<g>
</g>
<g>
</g>
<g>
</g>
<g>
</g>
<g>
</g>
<g>
</g>
<g>
</g>
<g>
</g>
<g>
</g>
<g>
</g>
<g>
</g>
<g>
</g>
</svg>
